<?xml version="1.0" encoding="UTF-8"?>
<svg id="Layer_1" xmlns="http://www.w3.org/2000/svg" version="1.1" viewBox="0 0 410.59 285.76">
  <!-- Generator: Adobe Illustrator 30.2.1, SVG Export Plug-In . SVG Version: 2.1.1 Build 1)  -->
  <defs>
    <style>
      .st0 {
        fill: #f15a26;
      }
    </style>
  </defs>
  <g id="logo_1">
    <path class="st0" d="M305.3,119.98c-.17-8.18-.22-16.36-.08-24.53.1-6.4.31-12.79.67-19.18,1.12-19.92-6.42-46.43-19.17-57.66-11.91-11.92-28.36-10.5-46.54-12.15h-71.61c-18.17-1.66-34.63,14.5-46.54,26.4-12.45,13.93-19.94,23.21-19.23,41.79,0,9.88.02,19.76.04,29.63,0,2.57,0,5.15,0,7.73,0,9.29.01,18.58.02,27.88-1.12,19.92,6.42,46.43,19.17,57.66,11.91,11.92,28.36,10.5,46.54,12.15h71.61c18.17,1.66,34.63-14.5,46.54-26.4,12.45-13.93,19.94-23.21,19.23-41.79-.28-7.17-.51-14.36-.65-21.54ZM204.38,179.93h0v-107.77c-19.84,0-35.92,16.09-35.92,35.93h17.96v71.85h-35.92v-71.85h17.96c0-9.92-4.02-18.9-10.52-25.4-4.47-4.47-10.11-7.77-16.42-9.39-2.87-.74-5.88-1.13-8.98-1.13,3.68,0,7.22-.55,10.56-1.58h0c5.67-1.75,10.75-4.86,14.84-8.95,4.09-4.09,7.2-9.17,8.94-14.84h0c1.02-3.34,1.58-6.88,1.58-10.56,0,3.1.4,6.11,1.13,8.98,1.63,6.31,4.93,11.95,9.39,16.42,6.5,6.5,15.48,10.52,25.4,10.52h35.93v71.85h26.31c-12.42,21.48-35.64,35.93-62.23,35.93Z"/>
    <path class="st0" d="M305.22,95.45c-.13,8.17-.08,16.35.08,24.53.46-3.9.69-7.87.69-11.9,0-4.28-.26-8.5-.78-12.63ZM102.84,104.28c-.06,1.26-.08,2.53-.08,3.8s.03,2.62.08,3.92c0-2.57-.01-5.15,0-7.73Z"/>
  </g>
  <g>
    <path class="st0" d="M4.19,238.92h14.02v42.66H4.19v-42.66Z"/>
    <path class="st0" d="M22.78,260.19c0-13.47,9.39-22.18,22.31-22.18,11.03,0,19.5,6.22,21.76,16.76h-14.87c-1.4-2.07-3.66-3.6-6.83-3.6-5.06,0-8.47,3.29-8.47,9.08,0,6.4,3.66,9.08,8.47,9.08,3.53,0,6.28-1.52,7.01-5.12h-9.51v-4.69h24.62c0,14.2-9.57,22.98-22.18,22.98s-22.31-8.71-22.31-22.31Z"/>
    <path class="st0" d="M71.84,238.92h14.63l15.72,23.1h.43v-23.1h13.1v42.66h-14.63l-15.66-23.04h-.49v23.04h-13.1v-42.66Z"/>
    <path class="st0" d="M121.7,239.83h13.47v3.72h-13.47v-3.72ZM121.7,247.14h13.47v34.43h-13.47v-34.43Z"/>
    <path class="st0" d="M151.2,249.89h-12.19v-10.97h38.39v10.97h-12.19v31.69h-14.02v-31.69Z"/>
    <path class="st0" d="M181.37,238.92h36.14v10.97h-22.37v4.88h22.37v10.97h-22.37v4.88h22.37v10.97h-36.14v-42.66Z"/>
    <path class="st0" d="M238.84,238.92h14.02v31.69h16.88v10.97h-30.9v-42.66Z"/>
    <path class="st0" d="M282.91,238.92h23.28l10.73,42.66h-13.96l-1.65-6.7h-13.53l-1.65,6.7h-13.96l10.73-42.66ZM290.29,264.39h8.47l-3.53-14.5h-1.4l-3.53,14.5Z"/>
    <path class="st0" d="M320.88,238.92h27.85c9.26,0,13.59,5.06,13.59,11.76,0,4.21-2.19,8.04-6.34,9.39,4.14,1.89,6.34,5,6.34,9.81,0,6.7-4.33,11.7-13.59,11.7h-27.85v-42.66ZM345.26,255.98c1.95,0,3.53-.91,3.53-3.05,0-2.25-1.58-3.05-3.53-3.05h-11.27v6.09h11.27ZM345.26,270.61c1.95,0,3.53-.91,3.53-3.17,0-2.07-1.58-2.93-3.53-2.93h-11.27v6.09h11.27Z"/>
    <path class="st0" d="M366.54,270.61h22.98c2.19,0,3.11-.85,3.11-2.32,0-1.71-.91-2.56-3.17-2.56h-10.18c-7.8,0-13.59-4.69-13.59-13.47s5.79-13.35,13.59-13.35h24.74v10.97h-21.94c-1.65,0-3.05.61-3.05,2.44s1.4,2.44,3.05,2.44h10.42c8.17,0,13.59,4.63,13.59,13.16s-5.42,13.65-13.59,13.65h-25.96v-10.97Z"/>
  </g>
</svg>