<?xml version="1.0" encoding="UTF-8"?>
<svg id="Layer_1" xmlns="http://www.w3.org/2000/svg" version="1.1" viewBox="0 0 616.34 219">
  <!-- Generator: Adobe Illustrator 30.2.1, SVG Export Plug-In . SVG Version: 2.1.1 Build 1)  -->
  <defs>
    <style>
      .st0 {
        fill: #fff;
      }
    </style>
  </defs>
  <g id="logo_1">
    <path class="st0" d="M209.8,119.98c-.17-8.18-.22-16.36-.08-24.53.1-6.4.31-12.79.67-19.18,1.12-19.92-6.42-46.43-19.17-57.66-11.91-11.92-28.36-10.5-46.54-12.15h-71.61c-18.17-1.66-34.63,14.5-46.54,26.4-12.45,13.93-19.94,23.21-19.23,41.79,0,9.88.02,19.76.04,29.63v7.73c0,9.29.01,18.58.02,27.88-1.12,19.92,6.42,46.43,19.17,57.66,11.91,11.92,28.36,10.5,46.54,12.15h71.61c18.17,1.66,34.63-14.5,46.54-26.4,12.45-13.93,19.94-23.21,19.23-41.79-.28-7.17-.51-14.36-.65-21.54h0ZM108.88,179.93h0v-107.77c-19.84,0-35.92,16.09-35.92,35.93h17.96v71.85h-35.92v-71.85h17.96c0-9.92-4.02-18.9-10.52-25.4-4.47-4.47-10.11-7.77-16.42-9.39-2.87-.74-5.88-1.13-8.98-1.13,3.68,0,7.22-.55,10.56-1.58h0c5.67-1.75,10.75-4.86,14.84-8.95s7.2-9.17,8.94-14.84h0c1.02-3.34,1.58-6.88,1.58-10.56,0,3.1.4,6.11,1.13,8.98,1.63,6.31,4.93,11.95,9.39,16.42,6.5,6.5,15.48,10.52,25.4,10.52h35.93v71.85h26.31c-12.42,21.48-35.64,35.93-62.23,35.93h-.01Z"/>
    <path class="st0" d="M209.72,95.45c-.13,8.17-.08,16.35.08,24.53.46-3.9.69-7.87.69-11.9,0-4.28-.26-8.5-.78-12.63h.01ZM7.34,104.28c-.06,1.26-.08,2.53-.08,3.8s.03,2.62.08,3.92c0-2.57-.01-5.15,0-7.73h0Z"/>
  </g>
  <g>
    <path class="st0" d="M235.96,27.99h24.24v73.75h-24.24V27.99h0Z"/>
    <path class="st0" d="M268.1,64.76c0-23.29,16.23-38.34,38.57-38.34,19.07,0,33.71,10.75,37.62,28.97h-25.71c-2.42-3.58-6.33-6.22-11.81-6.22-8.75,0-14.64,5.69-14.64,15.7,0,11.06,6.33,15.7,14.64,15.7,6.1,0,10.86-2.63,12.12-8.85h-16.44v-8.11h42.56c0,24.55-16.54,39.73-38.34,39.73s-38.57-15.06-38.57-38.57Z"/>
    <path class="st0" d="M352.91,27.99h25.29l27.18,39.94h.74V27.99h22.65v73.75h-25.29l-27.07-39.83h-.85v39.83h-22.65V27.99h0Z"/>
    <path class="st0" d="M439.11,29.56h23.29v6.43h-23.29v-6.43ZM439.11,42.2h23.29v59.52h-23.29v-59.52h0Z"/>
    <path class="st0" d="M490.11,46.96h-21.07v-18.97h66.37v18.97h-21.07v54.79h-24.24v-54.79h.02Z"/>
    <path class="st0" d="M542.27,27.99h62.48v18.97h-38.67v8.44h38.67v18.96h-38.67v8.44h38.67v18.97h-62.48V27.99Z"/>
  </g>
  <g>
    <path class="st0" d="M235.96,115.99h24.24v54.79h29.18v18.97h-53.42v-73.75h0Z"/>
    <path class="st0" d="M312.15,115.99h40.25l18.55,73.75h-24.13l-2.85-11.58h-23.39l-2.85,11.58h-24.13l18.55-73.75h.02ZM324.9,160.02h14.64l-6.1-25.07h-2.42l-6.1,25.07h-.02Z"/>
    <path class="st0" d="M377.79,115.99h48.15c16.01,0,23.49,8.75,23.49,20.33,0,7.28-3.79,13.9-10.96,16.23,7.16,3.27,10.96,8.64,10.96,16.96,0,11.58-7.49,20.23-23.49,20.23h-48.15v-73.75h0ZM419.94,145.48c3.37,0,6.1-1.57,6.1-5.27,0-3.89-2.73-5.27-6.1-5.27h-19.48v10.53h19.48v.02ZM419.94,170.78c3.37,0,6.1-1.57,6.1-5.48,0-3.58-2.73-5.07-6.1-5.07h-19.48v10.53h19.48v.02Z"/>
    <path class="st0" d="M456.73,170.78h39.73c3.79,0,5.38-1.47,5.38-4.01,0-2.96-1.57-4.43-5.48-4.43h-17.6c-13.48,0-23.49-8.11-23.49-23.29s10.01-23.08,23.49-23.08h42.77v18.97h-37.93c-2.85,0-5.27,1.05-5.27,4.22s2.42,4.22,5.27,4.22h18.01c14.12,0,23.49,8,23.49,22.75s-9.37,23.6-23.49,23.6h-44.88v-18.97.02Z"/>
  </g>
</svg>